<?xml version="1.0" standalone="no"?>
<!DOCTYPE svg PUBLIC "-//W3C//DTD SVG 20010904//EN"
 "http://www.w3.org/TR/2001/REC-SVG-20010904/DTD/svg10.dtd">
<svg version="1.0" xmlns="http://www.w3.org/2000/svg"
 width="761.000000pt" height="761.000000pt" viewBox="0 0 761.000000 761.000000"
 preserveAspectRatio="xMidYMid meet">
<metadata>
Created by potrace 1.14, written by Peter Selinger 2001-2017
</metadata>
<g transform="translate(0.000000,761.000000) scale(0.100000,-0.100000)"
fill="#000000" stroke="none">
<path d="M3598 7605 c-2 -2 -46 -6 -98 -9 -52 -4 -106 -8 -120 -10 -14 -3 -49
-7 -79 -10 -73 -9 -223 -35 -301 -53 -36 -8 -72 -16 -80 -18 -137 -28 -447
-129 -585 -190 -194 -86 -302 -140 -470 -238 -165 -96 -432 -291 -585 -427
-108 -96 -277 -271 -387 -400 -24 -28 -99 -125 -190 -245 -76 -100 -229 -359
-309 -522 -131 -269 -253 -618 -299 -858 -5 -22 -9 -44 -10 -50 -20 -90 -31
-155 -40 -230 -4 -27 -8 -57 -10 -65 -2 -8 -7 -51 -10 -95 -3 -44 -8 -100 -11
-125 -6 -62 -6 -431 0 -505 16 -169 36 -337 52 -420 112 -588 332 -1097 683
-1580 36 -49 70 -95 76 -101 5 -6 48 -57 95 -113 147 -175 396 -410 585 -553
471 -354 967 -578 1560 -704 52 -11 246 -41 315 -49 226 -25 697 -25 840 -1
14 2 50 7 80 10 178 20 464 84 675 152 962 310 1786 1019 2227 1917 33 67 64
130 69 140 44 81 175 452 204 574 14 57 47 201 51 218 12 53 43 247 49 305 4
36 9 72 10 82 7 36 18 270 18 383 -1 279 -27 514 -93 838 -27 134 -87 330
-160 522 -198 526 -530 1016 -956 1415 -376 352 -830 626 -1333 806 -186 67
-522 150 -676 169 -27 3 -59 8 -70 10 -19 4 -55 8 -180 21 -53 6 -532 13 -537
9z"/>
</g>
</svg>
